<svg fill="none" xmlns="http://www.w3.org/2000/svg" viewBox="0 0 73 72" class="design-iconfont">
  <path d="M13.1269 37.6603C10.3655 32.8773 12.0043 26.7614 16.7872 24L35.8397 13C40.6227 10.2386 46.7386 11.8773 49.5 16.6603L60.5 35.7128C63.2614 40.4958 61.6227 46.6117 56.8397 49.3731L37.7872 60.3731C33.0043 63.1345 26.8884 61.4957 24.1269 56.7128L13.1269 37.6603Z" fill="url(#n0sar3526__paint0_linear_6_934)"/>
  <g filter="url(#n0sar3526__filter0_b_6_934)">
    <rect x="24.5" y="21" width="42" height="42" rx="10" fill="#fff" fill-opacity=".1"/>
  </g>
  <path d="M39.7295 45.9066L40.6657 45.3939L42.7743 46.6033C43.441 46.9856 44.2718 46.5043 44.2718 45.7358V42.9477C44.2718 42.5909 44.0817 42.2611 43.773 42.0823L41.4387 40.7305C40.7721 40.3444 39.9376 40.8254 39.9376 41.5958V44.0505L39.1401 44.4924L37.1051 43.3068C36.487 42.9467 35.7237 42.9441 35.1032 43.2999L33.505 44.2165C32.8834 44.5731 32.5 45.2349 32.5 45.9515V47.9122C32.5 48.6288 32.8834 49.2906 33.505 49.6471L35.1135 50.5696C35.7285 50.9223 36.4842 50.9231 37.0999 50.5716L38.721 49.6464C39.3446 49.2904 39.7295 48.6275 39.7295 47.9094V45.9066ZM50.7732 44.5101L50.0451 44.0682V41.5958C50.0451 40.8254 49.2106 40.3444 48.5439 40.7305L46.2097 42.0823C45.9009 42.2611 45.7108 42.5909 45.7108 42.9477V45.7358C45.7108 46.5043 46.5417 46.9856 47.2083 46.6033L49.3169 45.3939L50.2531 45.9066V49.0707L52.8642 50.5682C53.4805 50.9217 54.238 50.9217 54.8542 50.5682L56.4603 49.6471C57.082 49.2906 57.4653 48.6288 57.4653 47.9122V45.9515C57.4653 45.2349 57.082 44.5731 56.4603 44.2165L54.8586 43.2979C54.24 42.9431 53.4793 42.9446 52.862 43.3017L50.7732 44.5101ZM52.9777 32.4806C51.9893 31.93 50.7732 32.6446 50.7732 33.776V33.776C50.7732 34.3134 51.064 34.8088 51.5333 35.0708L54.6047 36.7854V39.7873C54.6047 40.3035 54.8795 40.7806 55.326 41.0396V41.0396C56.2911 41.5993 57.5 40.903 57.5 39.7873V37.0317C57.5 35.7775 56.8208 34.6216 55.7251 34.0112L52.9777 32.4806ZM49.3212 51.0332C48.8768 50.7803 48.3331 50.7762 47.8849 51.0222L45 52.6061L42.1152 51.0223C41.6673 50.7764 41.1236 50.7819 40.6808 51.0369V51.0369C39.6962 51.6037 39.705 53.0274 40.6964 53.5821L43.4088 55.0999C44.4082 55.6592 45.6264 55.6592 46.6259 55.0999L49.312 53.5969C50.312 53.0373 50.3172 51.6 49.3212 51.0332V51.0332ZM34.674 41.0219C35.1205 40.7629 35.3953 40.2858 35.3953 39.7697V36.7677L38.4707 35.0509C38.9375 34.7903 39.2268 34.2975 39.2268 33.7629V33.7629C39.2268 32.6374 38.017 31.9265 37.0338 32.4742L34.035 34.1449C33.0874 34.6728 32.5 35.6724 32.5 36.7571V39.7697C32.5 40.8853 33.7089 41.5817 34.674 41.0219V41.0219ZM42.1763 37.7439C41.5063 38.1263 41.5033 39.0911 42.1709 39.4777L44.4988 40.8259C44.8088 41.0055 45.1912 41.0054 45.5012 40.8259L47.8327 39.4756C48.4995 39.0895 48.4975 38.1261 47.8291 37.7428L45.7282 36.5379V36.0253L47.6348 34.9078C48.2472 34.5488 48.6234 33.8922 48.6234 33.1823V31.2808C48.6234 30.5731 48.2495 29.9182 47.6401 29.5584L46.0191 28.6016C45.3906 28.2306 44.6099 28.2314 43.9822 28.6037L42.3736 29.5578C41.7663 29.918 41.3939 30.5718 41.3939 31.278V33.1823C41.3939 33.8922 41.7702 34.5488 42.3826 34.9078L44.2892 36.0253V36.5379L42.1763 37.7439Z" fill="#fff"/>
  <defs>
    <linearGradient id="n0sar3526__paint0_linear_6_934" x1="26.3135" y1="18.5" x2="47.3135" y2="54.8731" gradientUnits="userSpaceOnUse">
      <stop stop-color="#8287FF"/>
      <stop offset="1" stop-color="#6B2DED" stop-opacity=".51"/>
    </linearGradient>
    <filter id="n0sar3526__filter0_b_6_934" x="4.5" y="1" width="82" height="82" filterUnits="userSpaceOnUse" color-interpolation-filters="sRGB">
      <feFlood flood-opacity="0" result="BackgroundImageFix"/>
      <feGaussianBlur in="BackgroundImageFix" stdDeviation="10"/>
      <feComposite in2="SourceAlpha" operator="in" result="effect1_backgroundBlur_6_934"/>
      <feBlend in="SourceGraphic" in2="effect1_backgroundBlur_6_934" result="shape"/>
    </filter>
  </defs>
</svg>
