<svg fill="none" xmlns="http://www.w3.org/2000/svg" viewBox="0 0 73 72" class="design-iconfont">
  <path d="M13.1269 37.6603C10.3655 32.8773 12.0043 26.7614 16.7872 24L35.8397 13C40.6227 10.2386 46.7386 11.8773 49.5 16.6603L60.5 35.7128C63.2614 40.4958 61.6227 46.6117 56.8397 49.3731L37.7872 60.3731C33.0043 63.1345 26.8884 61.4957 24.1269 56.7128L13.1269 37.6603Z" fill="url(#9f6yrcbab__paint0_linear_6_971)"/>
  <g filter="url(#9f6yrcbab__filter0_b_6_971)">
    <rect x="24.1865" y="21" width="42" height="42" rx="10" fill="#fff" fill-opacity=".1"/>
  </g>
  <g clip-path="url(#9f6yrcbab__clip0_6_971)" fill="#fff">
    <path d="M43.9535 42.5804L33.773 37.6961C33.4267 37.5608 33.129 37.323 32.9191 37.0139C32.7092 36.7048 32.5969 36.3389 32.5969 35.9643C32.5969 35.5897 32.7092 35.2238 32.9191 34.9147C33.129 34.6056 33.4267 34.3678 33.773 34.2325L43.9535 29.3482C44.4394 29.1205 44.9687 29.0026 45.5045 29.0026C46.0403 29.0026 46.5696 29.1205 47.0555 29.3482L57.236 34.2325C57.5824 34.3678 57.88 34.6056 58.0899 34.9147C58.2998 35.2238 58.4121 35.5897 58.4121 35.9643C58.4121 36.3389 58.2998 36.7048 58.0899 37.0139C57.88 37.323 57.5824 37.5608 57.236 37.6961L47.0555 42.5804C46.5696 42.808 46.0403 42.926 45.5045 42.926C44.9687 42.926 44.4394 42.808 43.9535 42.5804V42.5804Z"/>
    <path d="M45.5046 49.1129C44.764 49.1131 44.0333 48.9416 43.369 48.6114L33.3818 43.6064C33.2028 43.5365 33.0402 43.4296 32.9045 43.2927C32.7687 43.1557 32.6628 42.9917 32.5934 42.8112C32.524 42.6306 32.4927 42.4374 32.5014 42.2439C32.5102 42.0505 32.5589 41.861 32.6444 41.6876C32.7299 41.5142 32.8502 41.3606 32.9978 41.2368C33.1454 41.113 33.317 41.0215 33.5016 40.9684C33.6862 40.9152 33.8798 40.9014 34.0699 40.928C34.2601 40.9545 34.4427 41.0208 34.6061 41.1225L44.5841 46.1275C44.8709 46.268 45.1857 46.341 45.5046 46.341C45.8234 46.341 46.1382 46.268 46.425 46.1275L56.4123 41.1225C56.5756 41.0208 56.7582 40.9545 56.9484 40.928C57.1385 40.9014 57.3321 40.9152 57.5167 40.9684C57.7013 41.0215 57.8729 41.113 58.0205 41.2368C58.1681 41.3606 58.2885 41.5142 58.3739 41.6876C58.4594 41.861 58.5081 42.0505 58.5169 42.2439C58.5257 42.4374 58.4944 42.6306 58.425 42.8112C58.3556 42.9917 58.2496 43.1557 58.1138 43.2927C57.9781 43.4296 57.8155 43.5365 57.6365 43.6064L47.6401 48.6114C46.9759 48.9421 46.2452 49.1136 45.5046 49.1129Z"/>
    <path d="M45.5046 55C44.764 55.0008 44.0332 54.8292 43.369 54.4986L33.3818 49.4936C33.2028 49.4236 33.0402 49.3167 32.9045 49.1798C32.7687 49.0429 32.6628 48.8789 32.5934 48.6983C32.524 48.5177 32.4927 48.3246 32.5014 48.1311C32.5102 47.9376 32.5589 47.7481 32.6444 47.5747C32.7299 47.4013 32.8502 47.2478 32.9978 47.1239C33.1454 47.0001 33.317 46.9087 33.5016 46.8555C33.6862 46.8023 33.8798 46.7886 34.0699 46.8151C34.2601 46.8417 34.4427 46.9079 34.6061 47.0097L44.5841 52.0146C44.8703 52.1575 45.1853 52.2318 45.5046 52.2318C45.8239 52.2318 46.1389 52.1575 46.425 52.0146L56.4123 47.0097C56.5756 46.9079 56.7582 46.8417 56.9484 46.8151C57.1385 46.7886 57.3321 46.8023 57.5167 46.8555C57.7013 46.9087 57.8729 47.0001 58.0205 47.1239C58.1681 47.2478 58.2885 47.4013 58.3739 47.5747C58.4594 47.7481 58.5081 47.9376 58.5169 48.1311C58.5257 48.3246 58.4944 48.5177 58.425 48.6983C58.3556 48.8789 58.2496 49.0429 58.1138 49.1798C57.9781 49.3167 57.8155 49.4236 57.6365 49.4936L47.6401 54.4986C46.9759 54.8292 46.2452 55.0008 45.5046 55V55Z"/>
  </g>
  <defs>
    <linearGradient id="9f6yrcbab__paint0_linear_6_971" x1="22.6865" y1="17.3731" x2="43.6865" y2="53.7461" gradientUnits="userSpaceOnUse">
      <stop stop-color="#FF9431"/>
      <stop offset="1" stop-color="#FF8A00" stop-opacity=".51"/>
    </linearGradient>
    <clipPath id="9f6yrcbab__clip0_6_971">
      <path fill="#fff" transform="translate(32.5 29)" d="M0 0H26V26H0z"/>
    </clipPath>
    <filter id="9f6yrcbab__filter0_b_6_971" x="4.18652" y="1" width="82" height="82" filterUnits="userSpaceOnUse" color-interpolation-filters="sRGB">
      <feFlood flood-opacity="0" result="BackgroundImageFix"/>
      <feGaussianBlur in="BackgroundImageFix" stdDeviation="10"/>
      <feComposite in2="SourceAlpha" operator="in" result="effect1_backgroundBlur_6_971"/>
      <feBlend in="SourceGraphic" in2="effect1_backgroundBlur_6_971" result="shape"/>
    </filter>
  </defs>
</svg>
