<svg fill="none" xmlns="http://www.w3.org/2000/svg" viewBox="0 0 73 72" class="design-iconfont">
  <path d="M13.1269 37.6603C10.3655 32.8773 12.0043 26.7614 16.7872 24L35.8397 13C40.6227 10.2386 46.7386 11.8773 49.5 16.6603L60.5 35.7128C63.2614 40.4958 61.6227 46.6117 56.8397 49.3731L37.7872 60.3731C33.0043 63.1345 26.8884 61.4957 24.1269 56.7128L13.1269 37.6603Z" fill="url(#cs5mbpi9l__paint0_linear_6_961)"/>
  <g filter="url(#cs5mbpi9l__filter0_b_6_961)">
    <rect x="24.1865" y="21" width="42" height="42" rx="10" fill="#fff" fill-opacity=".1"/>
  </g>
  <path d="M31.6598 43.5785V46.9063C31.6598 47.9655 30.8012 48.8241 29.742 48.8241V48.8241C28.6828 48.8241 27.8242 47.9655 27.8242 46.9063V38.3485C27.8242 36.9543 28.9544 35.8241 30.3485 35.8241V35.8241C31.196 35.8241 31.9869 36.2494 32.4543 36.9563L35.1739 41.0697C35.6945 41.8452 36.0926 42.499 36.3682 43.0311H36.4371V40.8417V37.7304C36.4371 36.6776 37.2906 35.8241 38.3434 35.8241V35.8241C39.3962 35.8241 40.2497 36.6776 40.2497 37.7304V46.2929C40.2497 47.6908 39.1164 48.8241 37.7185 48.8241V48.8241C36.8619 48.8241 36.0635 48.391 35.5965 47.6729L32.7852 43.3504L31.7517 41.7996H31.6828L31.6598 43.5785Z" fill="#fff"/>
  <path d="M41.4695 40.521C41.4695 37.927 43.5724 35.8241 46.1664 35.8241H49.4347C50.2237 35.8241 50.8633 36.4637 50.8633 37.2527V37.2527C50.8633 38.0256 50.2367 38.6522 49.4638 38.6522H46.4223C45.9702 38.6522 45.6037 39.0187 45.6037 39.4708V41.2294H48.7016C49.3881 41.2294 49.9446 41.7859 49.9446 42.4724V42.4724C49.9446 43.1589 49.3881 43.7154 48.7016 43.7154H45.6037V46.757C45.6037 47.8987 44.6782 48.8241 43.5366 48.8241V48.8241C42.395 48.8241 41.4695 47.8987 41.4695 46.757V40.521Z" fill="#fff"/>
  <path d="M60.1264 46.757C60.1264 47.8987 59.201 48.8241 58.0593 48.8241V48.8241C56.9177 48.8241 55.9923 47.8987 55.9923 46.757V38.675H53.7053C52.9261 38.675 52.2945 38.0434 52.2945 37.2642V37.2642C52.2945 36.4689 52.9392 35.8241 53.7345 35.8241H62.3842C63.1795 35.8241 63.8242 36.4689 63.8242 37.2642V37.2642C63.8242 38.0434 63.1926 38.675 62.4134 38.675H60.1264V46.757Z" fill="#fff"/>
  <defs>
    <linearGradient id="cs5mbpi9l__paint0_linear_6_961" x1="22.6865" y1="17.3731" x2="43.6865" y2="53.7461" gradientUnits="userSpaceOnUse">
      <stop stop-color="#13D9A9"/>
      <stop offset="1" stop-color="#00A86B" stop-opacity=".51"/>
    </linearGradient>
    <filter id="cs5mbpi9l__filter0_b_6_961" x="4.18652" y="1" width="82" height="82" filterUnits="userSpaceOnUse" color-interpolation-filters="sRGB">
      <feFlood flood-opacity="0" result="BackgroundImageFix"/>
      <feGaussianBlur in="BackgroundImageFix" stdDeviation="10"/>
      <feComposite in2="SourceAlpha" operator="in" result="effect1_backgroundBlur_6_961"/>
      <feBlend in="SourceGraphic" in2="effect1_backgroundBlur_6_961" result="shape"/>
    </filter>
  </defs>
</svg>
