<svg fill="none" xmlns="http://www.w3.org/2000/svg" viewBox="0 0 25 24" class="design-iconfont">
  <path fill="#FE8183" d="M12.5 0A12 12 0 1 0 12.5 24A12 12 0 1 0 12.5 0Z"/>
  <path fill-rule="evenodd" clip-rule="evenodd" d="M14.6495 4.48573C14.0019 3.83806 12.9518 3.83806 12.3041 4.48573C11.6565 5.1334 11.6565 6.18348 12.3041 6.83115L13.382 7.90904H7.1587C6.24276 7.90904 5.50024 8.65156 5.50024 9.5675C5.50024 10.4834 6.24276 11.226 7.1587 11.226H17.1095C17.1562 11.226 17.2025 11.224 17.2482 11.2202C17.7173 11.2591 18.1997 11.099 18.5586 10.7402C19.2062 10.0925 19.2062 9.04243 18.5586 8.39476L14.6495 4.48573Z" fill="#fff"/>
  <path fill-rule="evenodd" clip-rule="evenodd" d="M9.8949 19.5853C10.5426 20.233 11.5926 20.233 12.2403 19.5853C12.888 18.9376 12.888 17.8875 12.2403 17.2399L11.1624 16.162L17.3857 16.162C18.3017 16.162 19.0442 15.4195 19.0442 14.5035C19.0442 13.5876 18.3017 12.8451 17.3857 12.8451L7.43497 12.8451C7.38825 12.8451 7.34197 12.847 7.29623 12.8508C6.82717 12.812 6.34475 12.972 5.98587 13.3309C5.3382 13.9785 5.3382 15.0286 5.98587 15.6763L9.8949 19.5853Z" fill="#fff"/>
</svg>
