<svg fill="none" xmlns="http://www.w3.org/2000/svg" viewBox="0 0 25 24" class="design-iconfont">
  <path d="M12.5 0C5.87256 0 0.5 5.37256 0.5 12C0.5 18.6274 5.87256 24 12.5 24C19.1274 24 24.5 18.6274 24.5 12C24.5 5.37256 19.1274 0 12.5 0Z" fill="#8684FD"/>
  <path d="M11.5 5.57735C12.1188 5.22008 12.8812 5.22008 13.5 5.57735L17.5622 7.92265C18.181 8.27992 18.5622 8.94017 18.5622 9.6547V14.3453C18.5622 15.0598 18.181 15.7201 17.5622 16.0774L13.5 18.4226C12.8812 18.7799 12.1188 18.7799 11.5 18.4226L7.43782 16.0774C6.81902 15.7201 6.43782 15.0598 6.43782 14.3453V9.6547C6.43782 8.94017 6.81902 8.27992 7.43782 7.92265L11.5 5.57735Z" fill="#fff"/>
</svg>
